<svg aria-hidden="true" style="position: absolute; width: 0; height: 0; overflow: hidden;" version="1.1" xmlns="http://www.w3.org/2000/svg" xmlns:xlink="http://www.w3.org/1999/xlink">
<defs>
<symbol id="icon-dollar" viewBox="0 0 32 32">
<title>dollar</title>
<path d="M14.1 10.771c0.159-1.724 0.77-3.316 1.714-4.662-0.768-3.489-3.882-6.109-7.597-6.109-4.289 0-7.78 3.491-7.78 7.781 0 3.734 2.644 6.86 6.159 7.608 1.768-2.41 4.434-4.112 7.504-4.618zM5.106 9.633c0-0.283 0.217-0.502 0.501-0.502h1.597v-0.373l-0.219-0.373h-1.379c-0.284 0-0.501-0.219-0.501-0.502s0.217-0.502 0.501-0.502h0.785l-1.698-2.792c-0.090-0.155-0.18-0.347-0.18-0.528 0-0.707 0.656-0.939 1.106-0.939 0.541 0 0.785 0.425 0.876 0.605l1.724 3.281 1.723-3.281c0.092-0.18 0.335-0.605 0.874-0.605 0.451 0 1.106 0.232 1.106 0.939 0 0.18-0.090 0.373-0.179 0.527l-1.699 2.792h0.784c0.283 0 0.501 0.219 0.501 0.502s-0.219 0.502-0.501 0.502h-1.376l-0.219 0.373v0.373h1.595c0.283 0 0.501 0.219 0.501 0.502s-0.219 0.502-0.501 0.502h-1.595v1.273c0 0.618-0.374 1.029-1.015 1.029-0.643 0-1.016-0.412-1.016-1.029v-1.273h-1.597c-0.284 0-0.5-0.219-0.5-0.502z"></path>
<path d="M23.781 3.89c-3.928 0-7.177 2.929-7.7 6.716 1.485 0.011 2.9 0.304 4.204 0.822 0.086-0.199 0.265-0.323 0.543-0.323h0.27c-0.27-0.386-0.385-0.875-0.385-1.377 0-1.595 1.415-2.714 3.229-2.714 2.254 0 3.346 1.209 3.346 2.213 0 0.579-0.399 0.901-0.965 0.901-1.132 0-0.438-1.569-2.174-1.569-0.758 0-1.479 0.451-1.479 1.286 0 0.438 0.218 0.875 0.424 1.261h1.403c0.527 0 0.798 0.193 0.798 0.618s-0.27 0.617-0.798 0.617h-1.017c0.040 0.104 0.066 0.193 0.066 0.309 0 0.208-0.052 0.413-0.132 0.614 0.421 0.347 0.809 0.733 1.177 1.135 0.357 0.072 0.675 0.155 1.052 0.155 0.217 0 0.748-0.142 0.951-0.142 0.475 0 0.746 0.36 0.746 0.822 0 0.726-0.65 1.041-1.319 1.085 0.444 0.746 0.814 1.538 1.087 2.376 2.629-1.249 4.456-3.924 4.456-7.024-0.001-4.289-3.492-7.78-7.781-7.78z"></path>
<path d="M16.515 23.201v3.184c0.963-0.064 1.978-0.514 1.978-1.575 0-1.094-1.112-1.416-1.978-1.608z"></path>
<path d="M13.748 19.39c0 0.805 0.596 1.27 1.801 1.512v-2.879c-1.095 0.033-1.801 0.675-1.801 1.367z"></path>
<path d="M16 12.547c-5.363 0-9.727 4.364-9.727 9.727s4.364 9.726 9.727 9.726c5.363 0 9.728-4.362 9.728-9.726s-4.365-9.727-9.728-9.727zM16.515 28.025v0.997c0 0.274-0.211 0.547-0.484 0.547s-0.482-0.272-0.482-0.547v-0.997c-2.717-0.064-4.069-1.689-4.069-2.96 0-0.641 0.385-1.012 0.997-1.012 1.801 0 0.401 2.22 3.072 2.332v-3.361c-2.382-0.434-3.826-1.479-3.826-3.265 0-2.186 1.816-3.312 3.826-3.376v-0.857c0-0.274 0.209-0.547 0.482-0.547s0.484 0.273 0.484 0.547v0.857c1.252 0.033 3.825 0.819 3.825 2.397 0 0.627-0.467 0.995-1.013 0.995-1.045 0-1.031-1.718-2.811-1.752v3.055c2.123 0.451 4.003 1.077 4.003 3.555 0 2.154-1.61 3.248-4.003 3.392z"></path>
</symbol>
<symbol id="icon-support" viewBox="0 0 32 32">
<title>support</title>
<path d="M13.867 10.133c-0.882 0-1.6 0.718-1.6 1.6h1.067c0-0.294 0.239-0.533 0.533-0.533s0.533 0.239 0.533 0.533h1.067c0-0.882-0.718-1.6-1.6-1.6z"></path>
<path d="M18.133 10.133c-0.882 0-1.6 0.718-1.6 1.6h1.067c0-0.294 0.239-0.533 0.533-0.533s0.533 0.239 0.533 0.533h1.067c0-0.882-0.718-1.6-1.6-1.6z"></path>
<path d="M16 24.533c-1.177 0-2.133 0.957-2.133 2.133s0.957 2.133 2.133 2.133 2.133-0.957 2.133-2.133-0.957-2.133-2.133-2.133zM16 27.733c-0.588 0-1.067-0.478-1.067-1.067s0.478-1.067 1.067-1.067c0.588 0 1.067 0.478 1.067 1.067s-0.478 1.067-1.067 1.067z"></path>
<path d="M28.8 30.933v-6.933c0-4.411-3.589-8-8-8h-0.581c0.19-0.167 0.369-0.345 0.538-0.533h0.577c1.47 0 2.667-1.196 2.667-2.667v-0.94c0.643-0.431 1.067-1.164 1.067-1.994 0-0.833-0.427-1.567-1.073-1.997-0.071-4.35-3.626-7.869-7.994-7.869s-7.923 3.519-7.994 7.869c-0.646 0.43-1.073 1.164-1.073 1.997 0 1.323 1.077 2.4 2.4 2.4h0.363c0.25 1.478 1.005 2.783 2.085 3.733h-0.581c-4.411 0-8 3.589-8 8v6.933h-3.2v1.067h32v-1.067h-3.2zM22.933 12.8c0 0.809-0.606 1.473-1.386 1.578 0.37-0.643 0.629-1.355 0.756-2.111h0.363c0.091 0 0.178-0.017 0.267-0.027v0.561zM24 9.867c0 0.735-0.598 1.333-1.333 1.333h-0.267v-2.667h0.267c0.735 0 1.333 0.598 1.333 1.333zM9.6 11.2h-0.267c-0.735 0-1.333-0.598-1.333-1.333s0.598-1.333 1.333-1.333h0.267v2.667zM9.333 7.467c-0.083 0-0.161 0.016-0.241 0.025 0.262-3.586 3.257-6.425 6.908-6.425s6.645 2.839 6.908 6.425c-0.081-0.009-0.158-0.025-0.241-0.025h-0.363c-0.51-3.022-3.139-5.333-6.303-5.333s-5.794 2.311-6.303 5.333h-0.363zM21.333 8.52c-3.849-0.135-6.399-1.709-6.399-3.187 0-0.294-0.238-0.533-0.533-0.533s-0.533 0.239-0.533 0.533c0 1.333-1.378 2.437-3.169 2.633 0.284-2.675 2.554-4.766 5.302-4.766 2.936 0 5.325 2.386 5.333 5.32zM10.667 11.2v-2.163c1.666-0.145 3.079-0.948 3.785-2.073 1.116 1.478 3.723 2.519 6.882 2.625v1.611c0 1.202-0.404 2.307-1.077 3.2h-4.257v1.067h3.186c-0.306 0.229-0.636 0.427-0.988 0.587-1.399 0.636-2.997 0.636-4.397 0-1.845-0.839-3.134-2.697-3.134-4.853zM14.351 17.377c0.527 0.141 1.078 0.223 1.649 0.223s1.122-0.082 1.649-0.223l-1.649 3.297-1.649-3.297zM15.137 21.333h-0.941l-2.133-4.267h0.941l2.133 4.267zM18.996 17.067h0.941l-2.133 4.267h-0.941l2.133-4.267zM5.867 24v6.933h-1.6v-6.933c0-3.715 2.939-6.747 6.612-6.917l2.125 4.25h-4.47c-1.47 0-2.667 1.196-2.667 2.667zM25.067 30.933h-18.133v-6.933c0-0.882 0.718-1.6 1.6-1.6h14.933c0.882 0 1.6 0.718 1.6 1.6v6.933zM27.733 30.933h-1.6v-6.933c0-1.47-1.196-2.667-2.667-2.667h-4.47l2.125-4.25c3.673 0.17 6.612 3.202 6.612 6.917v6.933z"></path>
<path d="M22.933 26.133h1.067v3.733h-1.067v-3.733z"></path>
<path d="M22.933 24h1.067v1.067h-1.067v-1.067z"></path>
<path d="M27.733 4.8h1.067v1.067h-1.067v-1.067z"></path>
<path d="M27.733 6.933h1.067v1.067h-1.067v-1.067z"></path>
<path d="M27.733 9.067h1.067v1.067h-1.067v-1.067z"></path>
<path d="M3.2 11.2h1.067v1.067h-1.067v-1.067z"></path>
<path d="M3.2 13.333h1.067v1.067h-1.067v-1.067z"></path>
<path d="M3.2 15.467h1.067v1.067h-1.067v-1.067z"></path>
</symbol>
<symbol id="icon-stable" viewBox="0 0 32 32">
<title>stable</title>
<path d="M25 22.5c0.552 0 1 0.448 1 1h1c0-0.929-0.639-1.706-1.5-1.929v-1.071h-1v1h-1.5v2c0 1.103 0.897 2 2 2 0.552 0 1 0.448 1 1v1h-1c-0.552 0-1-0.448-1-1h-1c0 0.929 0.639 1.706 1.5 1.929v1.071h1v-1h1.5v-2c0-1.103-0.897-2-2-2-0.552 0-1-0.448-1-1v-1z"></path>
<path d="M25.218 18.511l-4.218-4.218-9 9-3.5-3.5-7 7v-3.086l7-7 2 2 8.729-8.729c1.082 2.089 3.261 3.522 5.771 3.522 3.584 0 6.5-2.916 6.5-6.5s-2.916-6.5-6.5-6.5-6.5 2.916-6.5 6.5c0 0.691 0.11 1.357 0.311 1.982l-8.312 8.311-2-2-7 7v-9.793h3v-1h-3v-1h4v-1h-4v-1h3v-1h-3v-1h4v-1h-4v-1h3v-1h-3v-1h4v-1h-4v-1h-1v31h24.5c3.584 0 6.5-2.916 6.5-6.5 0-3.511-2.8-6.372-6.282-6.489zM25 1.5c3.032 0 5.5 2.467 5.5 5.5s-2.468 5.5-5.5 5.5-5.5-2.467-5.5-5.5 2.468-5.5 5.5-5.5zM15.5 21.207v9.293h-2v-7.293zM12.5 24.207v6.293h-2v-7.293l1.5 1.5zM9.5 22.207v8.293h-2v-8.293l1-1zM6.5 30.5h-2v-5.293l2-2zM1.5 28.207l2-2v4.293h-2zM16.5 30.5v-10.293l4.5-4.5 2.895 2.895c-3.058 0.527-5.395 3.192-5.395 6.398 0 2.317 1.222 4.349 3.052 5.5zM25 30.5c-3.032 0-5.5-2.468-5.5-5.5s2.468-5.5 5.5-5.5 5.5 2.468 5.5 5.5-2.468 5.5-5.5 5.5z"></path>
<path d="M25 9.5c-0.552 0-1-0.448-1-1h-1c0 0.929 0.639 1.706 1.5 1.929v1.071h1v-1h1.5v-2c0-1.103-0.897-2-2-2-0.552 0-1-0.449-1-1v-1h1c0.552 0 1 0.449 1 1h1c0-0.929-0.639-1.705-1.5-1.929v-1.071h-1v1h-1.5v2c0 1.103 0.897 2 2 2 0.552 0 1 0.449 1 1v1z"></path>
<path d="M9 4h1v1h-1z"></path>
<path d="M11 4h6v1h-6z"></path>
<path d="M9 6h1v1h-1z"></path>
<path d="M11 6h6v1h-6z"></path>
<path d="M9 8h1v1h-1z"></path>
<path d="M11 8h6v1h-6z"></path>
</symbol>
<symbol id="icon-shield" viewBox="0 0 32 32">
<title>shield</title>
<path d="M29.593 8.682l-0.001-0.025c-0.014-0.307-0.023-0.633-0.029-0.994-0.026-1.764-1.429-3.224-3.193-3.322-3.679-0.205-6.525-1.405-8.957-3.775l-0.021-0.020c-0.793-0.727-1.99-0.727-2.783 0l-0.021 0.020c-2.432 2.37-5.278 3.57-8.957 3.776-1.764 0.098-3.167 1.558-3.193 3.322-0.005 0.359-0.015 0.685-0.029 0.994l-0.001 0.058c-0.072 3.752-0.16 8.421 1.402 12.659 0.859 2.331 2.16 4.356 3.866 6.022 1.943 1.896 4.489 3.402 7.565 4.475 0.1 0.035 0.204 0.063 0.31 0.084 0.149 0.030 0.3 0.045 0.45 0.045s0.301-0.015 0.45-0.045c0.106-0.021 0.211-0.050 0.311-0.085 3.073-1.075 5.616-2.581 7.557-4.477 1.706-1.666 3.006-3.692 3.866-6.023 1.568-4.251 1.479-8.929 1.408-12.687zM26.423 20.72c-1.647 4.467-5.010 7.534-10.281 9.378-0.019 0.006-0.039 0.012-0.060 0.016-0.054 0.011-0.11 0.011-0.165-0-0.021-0.004-0.041-0.010-0.059-0.016-5.276-1.84-8.642-4.906-10.288-9.373-1.44-3.906-1.358-8.193-1.286-11.974l0-0.021c0.015-0.325 0.024-0.665 0.030-1.039 0.012-0.783 0.636-1.432 1.421-1.475 2.082-0.116 3.911-0.519 5.592-1.23 1.678-0.71 3.169-1.712 4.557-3.062 0.071-0.060 0.162-0.060 0.232 0 1.388 1.35 2.879 2.351 4.557 3.062 1.681 0.711 3.51 1.114 5.592 1.23 0.785 0.044 1.409 0.692 1.42 1.476 0.006 0.376 0.015 0.716 0.030 1.039 0.072 3.786 0.151 8.075-1.292 11.99z"></path>
<path d="M16 8.026c-4.397 0-7.975 3.578-7.975 7.975s3.577 7.975 7.975 7.975c4.397 0 7.975-3.578 7.975-7.975s-3.578-7.975-7.975-7.975zM16 22.098c-3.362 0-6.097-2.735-6.097-6.097s2.735-6.097 6.097-6.097c3.362 0 6.097 2.735 6.097 6.097s-2.735 6.097-6.097 6.097z"></path>
<path d="M18.292 13.525l-3.704 3.704-1.005-1.005c-0.367-0.367-0.961-0.367-1.328 0s-0.366 0.961 0 1.328l1.669 1.669c0.183 0.183 0.424 0.275 0.664 0.275s0.48-0.092 0.664-0.275l4.368-4.368c0.366-0.367 0.366-0.961 0-1.328s-0.961-0.367-1.328 0z"></path>
</symbol>
<symbol id="icon-referral" viewBox="0 0 32 32">
<title>referral</title>
<path d="M29 0.5h-23c-1.378 0-2.5 1.121-2.5 2.5v11.5h-0.5c-1.379 0-2.5 1.121-2.5 2.5v9c0 1.378 1.121 2.5 2.5 2.5h6.315l3.052 2.616c0.289 0.248 0.658 0.384 1.038 0.384 0.879 0 1.595-0.715 1.595-1.595v-1.405h1c1.378 0 2.5-1.122 2.5-2.5v-8.5h2.815l3.052 2.616c0.289 0.248 0.657 0.384 1.038 0.384 0.879 0 1.595-0.715 1.595-1.595v-1.405h2c1.378 0 2.5-1.122 2.5-2.5v-12c0-1.379-1.122-2.5-2.5-2.5zM17.5 26c0 0.827-0.673 1.5-1.5 1.5h-2v2.405c0 0.328-0.267 0.595-0.595 0.595-0.142 0-0.28-0.051-0.387-0.143l-3.333-2.857h-6.685c-0.827 0-1.5-0.673-1.5-1.5v-9c0-0.827 0.673-1.5 1.5-1.5h13c0.827 0 1.5 0.673 1.5 1.5zM8.5 5.5c0-1.103 0.897-2 2-2s2 0.897 2 2-0.897 2-2 2-2-0.897-2-2zM10.5 8.5c0.338 0 0.668 0.046 0.987 0.127-0.063 0.491-0.479 0.873-0.987 0.873s-0.923-0.382-0.987-0.871c0.316-0.081 0.646-0.129 0.987-0.129zM8.57 8.998c0.223 0.861 0.999 1.502 1.93 1.502 0.929 0 1.705-0.639 1.929-1.499 0.339 0.187 0.652 0.421 0.928 0.704-0.541 0.799-0.857 1.761-0.857 2.796v2h-6v-2c0-1.506 0.838-2.819 2.071-3.502zM15.5 5.5c0-1.103 0.897-2 2-2s2 0.897 2 2-0.897 2-2 2-2-0.897-2-2zM17.979 12.314l-0.479 0.479-0.479-0.479 0.381-3.809c0.033-0.001 0.065-0.005 0.098-0.005s0.065 0.004 0.098 0.005zM17.5 14.207l1.521-1.521-0.402-4.024c1.663 0.486 2.881 2.021 2.881 3.838v2h-8v-2c0-1.817 1.219-3.352 2.881-3.838l-0.402 4.024zM22.5 5.5c0-1.103 0.897-2 2-2s2 0.897 2 2-0.897 2-2 2-2-0.897-2-2zM24.5 8.5c0.341 0 0.671 0.047 0.987 0.129-0.064 0.49-0.48 0.871-0.987 0.871s-0.924-0.382-0.987-0.873c0.319-0.081 0.649-0.127 0.987-0.127zM22.572 9.001c0.224 0.86 1 1.499 1.928 1.499 0.93 0 1.706-0.64 1.93-1.502 1.233 0.682 2.070 1.995 2.070 3.502v2h-6v-2c0-1.034-0.316-1.997-0.857-2.796 0.276-0.282 0.589-0.517 0.928-0.704zM30.5 15c0 0.827-0.673 1.5-1.5 1.5h-3v2.405c0 0.328-0.267 0.595-0.595 0.595-0.142 0-0.28-0.051-0.387-0.143l-3.333-2.857h-3.236c-0.076-0.372-0.241-0.708-0.462-1h11.512v-3c0-2.104-1.308-3.905-3.152-4.641 0.7-0.55 1.152-1.401 1.152-2.359 0-1.655-1.346-3-3-3s-3 1.345-3 3c0 0.957 0.453 1.809 1.153 2.36-0.613 0.243-1.178 0.602-1.657 1.073-0.469-0.46-1.029-0.826-1.648-1.074 0.7-0.55 1.152-1.402 1.152-2.359 0-1.655-1.346-3-3-3s-3 1.345-3 3c0 0.957 0.452 1.809 1.152 2.358-0.62 0.248-1.179 0.614-1.649 1.074-0.479-0.471-1.043-0.829-1.656-1.074 0.7-0.55 1.153-1.401 1.153-2.359 0-1.655-1.345-3-3-3s-3 1.345-3 3c0 0.957 0.452 1.808 1.152 2.359-1.844 0.737-3.152 2.538-3.152 4.642v2h-1v-11.5c0-0.827 0.673-1.5 1.5-1.5h23c0.827 0 1.5 0.673 1.5 1.5z"></path>
<path d="M15.5 20.5c0-1.207-0.861-2.217-2-2.45v-1.55h-2.666l-0.133 0.1c-1.204 0.903-2.696 1.4-4.2 1.4h-1.5c-0.827 0-1.5 0.673-1.5 1.5v2c0 0.827 0.673 1.5 1.5 1.5h0.5v2c0 0.827 0.673 1.5 1.5 1.5s1.5-0.673 1.5-1.5v-1.7c0.79 0.236 1.539 0.605 2.2 1.1l0.133 0.1h2.667v-1.55c1.139-0.233 2-1.242 2-2.45zM4.5 21.5v-2c0-0.276 0.224-0.5 0.5-0.5h1.5c1.401 0 2.789-0.381 4-1.078v5.157c-1.211-0.698-2.599-1.079-4-1.079h-1.5c-0.276 0-0.5-0.224-0.5-0.5zM7.5 25c0 0.276-0.224 0.5-0.5 0.5s-0.5-0.224-0.5-0.5v-2c0.335 0 0.669 0.029 1 0.077zM12.5 23.5h-1v-6h1zM13.5 21.908v-2.816c0.581 0.207 1 0.757 1 1.408s-0.419 1.2-1 1.407z"></path>
<path d="M5.5 7.5h1v1h-1z"></path>
<path d="M5.5 3.5v3h1v-3h1v-1h-1c-0.551 0-1 0.449-1 1z"></path>
<path d="M28.5 4.5h1v1h-1z"></path>
<path d="M28.5 2.5h1v1h-1z"></path>
<path d="M28.5 6.5h1v1h-1z"></path>
<path d="M15.5 25.5h-1v1h1c0.552 0 1-0.448 1-1v-3h-1z"></path>
</symbol>
<symbol id="icon-payment" viewBox="0 0 32 32">
<title>payment</title>
<path d="M7.467 8c0.884 0 1.6-0.716 1.6-1.6v-2.133c0-0.884-0.716-1.6-1.6-1.6h-3.2c-0.884 0-1.6 0.716-1.6 1.6v2.133c0 0.884 0.716 1.6 1.6 1.6zM7.467 6.933h-1.6v-1.067h2.133v0.533c0 0.295-0.239 0.533-0.533 0.533zM8 4.267v0.533h-2.133v-1.067h1.6c0.295 0 0.533 0.239 0.533 0.533zM4.267 3.733h0.533v1.067h-1.067v-0.533c0-0.295 0.239-0.533 0.533-0.533zM3.733 6.4v-0.533h1.067v1.067h-0.533c-0.295 0-0.533-0.239-0.533-0.533z"></path>
<path d="M4.267 11.2c-0.295 0-0.533 0.239-0.533 0.533s0.239 0.533 0.533 0.533h3.2c0.295 0 0.533-0.239 0.533-0.533s-0.239-0.533-0.533-0.533z"></path>
<path d="M10.133 11.2h-0.533c-0.295 0-0.533 0.239-0.533 0.533s0.239 0.533 0.533 0.533h0.533c0.295 0 0.533-0.239 0.533-0.533s-0.239-0.533-0.533-0.533z"></path>
<path d="M5.333 14.4h-1.067c-0.295 0-0.533 0.239-0.533 0.533s0.239 0.533 0.533 0.533h1.067c0.295 0 0.533-0.239 0.533-0.533s-0.239-0.533-0.533-0.533z"></path>
<path d="M10.133 14.4h-2.133c-0.295 0-0.533 0.239-0.533 0.533s0.239 0.533 0.533 0.533h2.133c0.295 0 0.533-0.239 0.533-0.533s-0.239-0.533-0.533-0.533z"></path>
<path d="M19.733 7.467c0.615-0.002 1.199-0.271 1.6-0.737 0.583 0.674 1.523 0.914 2.358 0.603s1.388-1.108 1.388-1.999c0-0.891-0.554-1.688-1.388-1.999s-1.775-0.071-2.358 0.603c-0.646-0.74-1.714-0.941-2.585-0.489s-1.32 1.443-1.086 2.396c0.234 0.954 1.090 1.624 2.071 1.622zM22.933 4.267c0.589 0 1.067 0.478 1.067 1.067s-0.478 1.067-1.067 1.067-1.067-0.478-1.067-1.067 0.478-1.067 1.067-1.067zM19.733 4.267c0.589 0 1.067 0.478 1.067 1.067s-0.478 1.067-1.067 1.067-1.067-0.478-1.067-1.067 0.478-1.067 1.067-1.067z"></path>
<path d="M30.479 11.195c-0.923-0.044-1.841-0.159-2.746-0.344v-7.118c-0.002-2.061-1.672-3.731-3.733-3.733h-20.267c-2.061 0.002-3.731 1.672-3.733 3.733v11.2c0.002 2.061 1.672 3.731 3.733 3.733h8v1.022c0 0.077 0.005 0.154 0.017 0.23 0.135 0.938 1.553 9.248 9.6 11.996 0.336 0.114 0.7 0.114 1.035 0 8.047-2.748 9.465-11.058 9.6-12 0.011-0.075 0.016-0.152 0.016-0.228v-6.887c0.004-0.856-0.667-1.563-1.522-1.605zM3.733 17.6c-1.472-0.002-2.665-1.195-2.667-2.667v-11.2c0.002-1.472 1.195-2.665 2.667-2.667h20.267c1.472 0.002 2.665 1.195 2.667 2.667v6.857c-1.374-0.365-2.661-0.999-3.787-1.867-0.59-0.478-1.434-0.478-2.023 0-2.435 1.955-5.807 2.387-7.601 2.471-0.856 0.041-1.527 0.749-1.523 1.606v4.8zM30.933 19.689c-0 0.026-0.002 0.052-0.005 0.078-0.126 0.872-1.443 8.596-8.889 11.139-0.112 0.038-0.233 0.038-0.345 0-7.446-2.543-8.763-10.265-8.888-11.137-0.004-0.026-0.006-0.053-0.006-0.079v-6.889c-0.004-0.286 0.219-0.524 0.504-0.539 1.923-0.090 5.547-0.56 8.219-2.705 0.2-0.165 0.488-0.165 0.688 0 2.67 2.145 6.293 2.613 8.219 2.705 0.285 0.016 0.508 0.253 0.504 0.539z"></path>
<path d="M29.387 13.247c-2.566-0.196-5.044-1.019-7.217-2.397-0.182-0.124-0.421-0.124-0.603 0-2.174 1.379-4.653 2.202-7.22 2.397-0.273 0.027-0.48 0.257-0.48 0.531v5.809c0 0.027 0.002 0.054 0.006 0.081 0.193 1.259 1.471 7.662 7.806 10.044 0.12 0.045 0.253 0.045 0.373 0 6.481-2.435 7.692-9.272 7.809-10.044 0.004-0.026 0.006-0.053 0.006-0.079v-5.81c0-0.274-0.207-0.503-0.48-0.531zM28.8 19.546c-0.137 0.862-1.284 6.849-6.933 9.094-5.643-2.24-6.795-8.231-6.933-9.095v-5.289c2.455-0.254 4.823-1.048 6.933-2.326 2.111 1.278 4.479 2.073 6.933 2.326z"></path>
<path d="M19.044 19.89c-0.209-0.202-0.542-0.199-0.748 0.006s-0.209 0.538-0.006 0.748l2.133 2.133c0.1 0.1 0.236 0.156 0.377 0.156h0.027c0.151-0.008 0.291-0.078 0.386-0.195l4.8-5.867c0.181-0.228 0.145-0.56-0.080-0.744s-0.557-0.154-0.745 0.069l-4.427 5.411z"></path>
</symbol>
</defs>
</svg>
