<!-- Generated by IcoMoon.io -->
<svg version="1.1" xmlns="http://www.w3.org/2000/svg" width="32" height="32" viewBox="0 0 32 32">
<title>dollar</title>
<path d="M14.1 10.771c0.159-1.724 0.77-3.316 1.714-4.662-0.768-3.489-3.882-6.109-7.597-6.109-4.289 0-7.78 3.491-7.78 7.781 0 3.734 2.644 6.86 6.159 7.608 1.768-2.41 4.434-4.112 7.504-4.618zM5.106 9.633c0-0.283 0.217-0.502 0.501-0.502h1.597v-0.373l-0.219-0.373h-1.379c-0.284 0-0.501-0.219-0.501-0.502s0.217-0.502 0.501-0.502h0.785l-1.698-2.792c-0.090-0.155-0.18-0.347-0.18-0.528 0-0.707 0.656-0.939 1.106-0.939 0.541 0 0.785 0.425 0.876 0.605l1.724 3.281 1.723-3.281c0.092-0.18 0.335-0.605 0.874-0.605 0.451 0 1.106 0.232 1.106 0.939 0 0.18-0.090 0.373-0.179 0.527l-1.699 2.792h0.784c0.283 0 0.501 0.219 0.501 0.502s-0.219 0.502-0.501 0.502h-1.376l-0.219 0.373v0.373h1.595c0.283 0 0.501 0.219 0.501 0.502s-0.219 0.502-0.501 0.502h-1.595v1.273c0 0.618-0.374 1.029-1.015 1.029-0.643 0-1.016-0.412-1.016-1.029v-1.273h-1.597c-0.284 0-0.5-0.219-0.5-0.502z"></path>
<path d="M23.781 3.89c-3.928 0-7.177 2.929-7.7 6.716 1.485 0.011 2.9 0.304 4.204 0.822 0.086-0.199 0.265-0.323 0.543-0.323h0.27c-0.27-0.386-0.385-0.875-0.385-1.377 0-1.595 1.415-2.714 3.229-2.714 2.254 0 3.346 1.209 3.346 2.213 0 0.579-0.399 0.901-0.965 0.901-1.132 0-0.438-1.569-2.174-1.569-0.758 0-1.479 0.451-1.479 1.286 0 0.438 0.218 0.875 0.424 1.261h1.403c0.527 0 0.798 0.193 0.798 0.618s-0.27 0.617-0.798 0.617h-1.017c0.040 0.104 0.066 0.193 0.066 0.309 0 0.208-0.052 0.413-0.132 0.614 0.421 0.347 0.809 0.733 1.177 1.135 0.357 0.072 0.675 0.155 1.052 0.155 0.217 0 0.748-0.142 0.951-0.142 0.475 0 0.746 0.36 0.746 0.822 0 0.726-0.65 1.041-1.319 1.085 0.444 0.746 0.814 1.538 1.087 2.376 2.629-1.249 4.456-3.924 4.456-7.024-0.001-4.289-3.492-7.78-7.781-7.78z"></path>
<path d="M16.515 23.201v3.184c0.963-0.064 1.978-0.514 1.978-1.575 0-1.094-1.112-1.416-1.978-1.608z"></path>
<path d="M13.748 19.39c0 0.805 0.596 1.27 1.801 1.512v-2.879c-1.095 0.033-1.801 0.675-1.801 1.367z"></path>
<path d="M16 12.547c-5.363 0-9.727 4.364-9.727 9.727s4.364 9.726 9.727 9.726c5.363 0 9.728-4.362 9.728-9.726s-4.365-9.727-9.728-9.727zM16.515 28.025v0.997c0 0.274-0.211 0.547-0.484 0.547s-0.482-0.272-0.482-0.547v-0.997c-2.717-0.064-4.069-1.689-4.069-2.96 0-0.641 0.385-1.012 0.997-1.012 1.801 0 0.401 2.22 3.072 2.332v-3.361c-2.382-0.434-3.826-1.479-3.826-3.265 0-2.186 1.816-3.312 3.826-3.376v-0.857c0-0.274 0.209-0.547 0.482-0.547s0.484 0.273 0.484 0.547v0.857c1.252 0.033 3.825 0.819 3.825 2.397 0 0.627-0.467 0.995-1.013 0.995-1.045 0-1.031-1.718-2.811-1.752v3.055c2.123 0.451 4.003 1.077 4.003 3.555 0 2.154-1.61 3.248-4.003 3.392z"></path>
</svg>
