<!-- Generated by IcoMoon.io -->
<svg version="1.1" xmlns="http://www.w3.org/2000/svg" width="32" height="32" viewBox="0 0 32 32">
<title>payment</title>
<path d="M7.467 8c0.884 0 1.6-0.716 1.6-1.6v-2.133c0-0.884-0.716-1.6-1.6-1.6h-3.2c-0.884 0-1.6 0.716-1.6 1.6v2.133c0 0.884 0.716 1.6 1.6 1.6zM7.467 6.933h-1.6v-1.067h2.133v0.533c0 0.295-0.239 0.533-0.533 0.533zM8 4.267v0.533h-2.133v-1.067h1.6c0.295 0 0.533 0.239 0.533 0.533zM4.267 3.733h0.533v1.067h-1.067v-0.533c0-0.295 0.239-0.533 0.533-0.533zM3.733 6.4v-0.533h1.067v1.067h-0.533c-0.295 0-0.533-0.239-0.533-0.533z"></path>
<path d="M4.267 11.2c-0.295 0-0.533 0.239-0.533 0.533s0.239 0.533 0.533 0.533h3.2c0.295 0 0.533-0.239 0.533-0.533s-0.239-0.533-0.533-0.533z"></path>
<path d="M10.133 11.2h-0.533c-0.295 0-0.533 0.239-0.533 0.533s0.239 0.533 0.533 0.533h0.533c0.295 0 0.533-0.239 0.533-0.533s-0.239-0.533-0.533-0.533z"></path>
<path d="M5.333 14.4h-1.067c-0.295 0-0.533 0.239-0.533 0.533s0.239 0.533 0.533 0.533h1.067c0.295 0 0.533-0.239 0.533-0.533s-0.239-0.533-0.533-0.533z"></path>
<path d="M10.133 14.4h-2.133c-0.295 0-0.533 0.239-0.533 0.533s0.239 0.533 0.533 0.533h2.133c0.295 0 0.533-0.239 0.533-0.533s-0.239-0.533-0.533-0.533z"></path>
<path d="M19.733 7.467c0.615-0.002 1.199-0.271 1.6-0.737 0.583 0.674 1.523 0.914 2.358 0.603s1.388-1.108 1.388-1.999c0-0.891-0.554-1.688-1.388-1.999s-1.775-0.071-2.358 0.603c-0.646-0.74-1.714-0.941-2.585-0.489s-1.32 1.443-1.086 2.396c0.234 0.954 1.090 1.624 2.071 1.622zM22.933 4.267c0.589 0 1.067 0.478 1.067 1.067s-0.478 1.067-1.067 1.067-1.067-0.478-1.067-1.067 0.478-1.067 1.067-1.067zM19.733 4.267c0.589 0 1.067 0.478 1.067 1.067s-0.478 1.067-1.067 1.067-1.067-0.478-1.067-1.067 0.478-1.067 1.067-1.067z"></path>
<path d="M30.479 11.195c-0.923-0.044-1.841-0.159-2.746-0.344v-7.118c-0.002-2.061-1.672-3.731-3.733-3.733h-20.267c-2.061 0.002-3.731 1.672-3.733 3.733v11.2c0.002 2.061 1.672 3.731 3.733 3.733h8v1.022c0 0.077 0.005 0.154 0.017 0.23 0.135 0.938 1.553 9.248 9.6 11.996 0.336 0.114 0.7 0.114 1.035 0 8.047-2.748 9.465-11.058 9.6-12 0.011-0.075 0.016-0.152 0.016-0.228v-6.887c0.004-0.856-0.667-1.563-1.522-1.605zM3.733 17.6c-1.472-0.002-2.665-1.195-2.667-2.667v-11.2c0.002-1.472 1.195-2.665 2.667-2.667h20.267c1.472 0.002 2.665 1.195 2.667 2.667v6.857c-1.374-0.365-2.661-0.999-3.787-1.867-0.59-0.478-1.434-0.478-2.023 0-2.435 1.955-5.807 2.387-7.601 2.471-0.856 0.041-1.527 0.749-1.523 1.606v4.8zM30.933 19.689c-0 0.026-0.002 0.052-0.005 0.078-0.126 0.872-1.443 8.596-8.889 11.139-0.112 0.038-0.233 0.038-0.345 0-7.446-2.543-8.763-10.265-8.888-11.137-0.004-0.026-0.006-0.053-0.006-0.079v-6.889c-0.004-0.286 0.219-0.524 0.504-0.539 1.923-0.090 5.547-0.56 8.219-2.705 0.2-0.165 0.488-0.165 0.688 0 2.67 2.145 6.293 2.613 8.219 2.705 0.285 0.016 0.508 0.253 0.504 0.539z"></path>
<path d="M29.387 13.247c-2.566-0.196-5.044-1.019-7.217-2.397-0.182-0.124-0.421-0.124-0.603 0-2.174 1.379-4.653 2.202-7.22 2.397-0.273 0.027-0.48 0.257-0.48 0.531v5.809c0 0.027 0.002 0.054 0.006 0.081 0.193 1.259 1.471 7.662 7.806 10.044 0.12 0.045 0.253 0.045 0.373 0 6.481-2.435 7.692-9.272 7.809-10.044 0.004-0.026 0.006-0.053 0.006-0.079v-5.81c0-0.274-0.207-0.503-0.48-0.531zM28.8 19.546c-0.137 0.862-1.284 6.849-6.933 9.094-5.643-2.24-6.795-8.231-6.933-9.095v-5.289c2.455-0.254 4.823-1.048 6.933-2.326 2.111 1.278 4.479 2.073 6.933 2.326z"></path>
<path d="M19.044 19.89c-0.209-0.202-0.542-0.199-0.748 0.006s-0.209 0.538-0.006 0.748l2.133 2.133c0.1 0.1 0.236 0.156 0.377 0.156h0.027c0.151-0.008 0.291-0.078 0.386-0.195l4.8-5.867c0.181-0.228 0.145-0.56-0.080-0.744s-0.557-0.154-0.745 0.069l-4.427 5.411z"></path>
</svg>
