<!-- Generated by IcoMoon.io -->
<svg version="1.1" xmlns="http://www.w3.org/2000/svg" width="32" height="32" viewBox="0 0 32 32">
<title>referral</title>
<path d="M29 0.5h-23c-1.378 0-2.5 1.121-2.5 2.5v11.5h-0.5c-1.379 0-2.5 1.121-2.5 2.5v9c0 1.378 1.121 2.5 2.5 2.5h6.315l3.052 2.616c0.289 0.248 0.658 0.384 1.038 0.384 0.879 0 1.595-0.715 1.595-1.595v-1.405h1c1.378 0 2.5-1.122 2.5-2.5v-8.5h2.815l3.052 2.616c0.289 0.248 0.657 0.384 1.038 0.384 0.879 0 1.595-0.715 1.595-1.595v-1.405h2c1.378 0 2.5-1.122 2.5-2.5v-12c0-1.379-1.122-2.5-2.5-2.5zM17.5 26c0 0.827-0.673 1.5-1.5 1.5h-2v2.405c0 0.328-0.267 0.595-0.595 0.595-0.142 0-0.28-0.051-0.387-0.143l-3.333-2.857h-6.685c-0.827 0-1.5-0.673-1.5-1.5v-9c0-0.827 0.673-1.5 1.5-1.5h13c0.827 0 1.5 0.673 1.5 1.5zM8.5 5.5c0-1.103 0.897-2 2-2s2 0.897 2 2-0.897 2-2 2-2-0.897-2-2zM10.5 8.5c0.338 0 0.668 0.046 0.987 0.127-0.063 0.491-0.479 0.873-0.987 0.873s-0.923-0.382-0.987-0.871c0.316-0.081 0.646-0.129 0.987-0.129zM8.57 8.998c0.223 0.861 0.999 1.502 1.93 1.502 0.929 0 1.705-0.639 1.929-1.499 0.339 0.187 0.652 0.421 0.928 0.704-0.541 0.799-0.857 1.761-0.857 2.796v2h-6v-2c0-1.506 0.838-2.819 2.071-3.502zM15.5 5.5c0-1.103 0.897-2 2-2s2 0.897 2 2-0.897 2-2 2-2-0.897-2-2zM17.979 12.314l-0.479 0.479-0.479-0.479 0.381-3.809c0.033-0.001 0.065-0.005 0.098-0.005s0.065 0.004 0.098 0.005zM17.5 14.207l1.521-1.521-0.402-4.024c1.663 0.486 2.881 2.021 2.881 3.838v2h-8v-2c0-1.817 1.219-3.352 2.881-3.838l-0.402 4.024zM22.5 5.5c0-1.103 0.897-2 2-2s2 0.897 2 2-0.897 2-2 2-2-0.897-2-2zM24.5 8.5c0.341 0 0.671 0.047 0.987 0.129-0.064 0.49-0.48 0.871-0.987 0.871s-0.924-0.382-0.987-0.873c0.319-0.081 0.649-0.127 0.987-0.127zM22.572 9.001c0.224 0.86 1 1.499 1.928 1.499 0.93 0 1.706-0.64 1.93-1.502 1.233 0.682 2.070 1.995 2.070 3.502v2h-6v-2c0-1.034-0.316-1.997-0.857-2.796 0.276-0.282 0.589-0.517 0.928-0.704zM30.5 15c0 0.827-0.673 1.5-1.5 1.5h-3v2.405c0 0.328-0.267 0.595-0.595 0.595-0.142 0-0.28-0.051-0.387-0.143l-3.333-2.857h-3.236c-0.076-0.372-0.241-0.708-0.462-1h11.512v-3c0-2.104-1.308-3.905-3.152-4.641 0.7-0.55 1.152-1.401 1.152-2.359 0-1.655-1.346-3-3-3s-3 1.345-3 3c0 0.957 0.453 1.809 1.153 2.36-0.613 0.243-1.178 0.602-1.657 1.073-0.469-0.46-1.029-0.826-1.648-1.074 0.7-0.55 1.152-1.402 1.152-2.359 0-1.655-1.346-3-3-3s-3 1.345-3 3c0 0.957 0.452 1.809 1.152 2.358-0.62 0.248-1.179 0.614-1.649 1.074-0.479-0.471-1.043-0.829-1.656-1.074 0.7-0.55 1.153-1.401 1.153-2.359 0-1.655-1.345-3-3-3s-3 1.345-3 3c0 0.957 0.452 1.808 1.152 2.359-1.844 0.737-3.152 2.538-3.152 4.642v2h-1v-11.5c0-0.827 0.673-1.5 1.5-1.5h23c0.827 0 1.5 0.673 1.5 1.5z"></path>
<path d="M15.5 20.5c0-1.207-0.861-2.217-2-2.45v-1.55h-2.666l-0.133 0.1c-1.204 0.903-2.696 1.4-4.2 1.4h-1.5c-0.827 0-1.5 0.673-1.5 1.5v2c0 0.827 0.673 1.5 1.5 1.5h0.5v2c0 0.827 0.673 1.5 1.5 1.5s1.5-0.673 1.5-1.5v-1.7c0.79 0.236 1.539 0.605 2.2 1.1l0.133 0.1h2.667v-1.55c1.139-0.233 2-1.242 2-2.45zM4.5 21.5v-2c0-0.276 0.224-0.5 0.5-0.5h1.5c1.401 0 2.789-0.381 4-1.078v5.157c-1.211-0.698-2.599-1.079-4-1.079h-1.5c-0.276 0-0.5-0.224-0.5-0.5zM7.5 25c0 0.276-0.224 0.5-0.5 0.5s-0.5-0.224-0.5-0.5v-2c0.335 0 0.669 0.029 1 0.077zM12.5 23.5h-1v-6h1zM13.5 21.908v-2.816c0.581 0.207 1 0.757 1 1.408s-0.419 1.2-1 1.407z"></path>
<path d="M5.5 7.5h1v1h-1z"></path>
<path d="M5.5 3.5v3h1v-3h1v-1h-1c-0.551 0-1 0.449-1 1z"></path>
<path d="M28.5 4.5h1v1h-1z"></path>
<path d="M28.5 2.5h1v1h-1z"></path>
<path d="M28.5 6.5h1v1h-1z"></path>
<path d="M15.5 25.5h-1v1h1c0.552 0 1-0.448 1-1v-3h-1z"></path>
</svg>
