<!-- Generated by IcoMoon.io -->
<svg version="1.1" xmlns="http://www.w3.org/2000/svg" width="32" height="32" viewBox="0 0 32 32">
<title>stable</title>
<path d="M25 22.5c0.552 0 1 0.448 1 1h1c0-0.929-0.639-1.706-1.5-1.929v-1.071h-1v1h-1.5v2c0 1.103 0.897 2 2 2 0.552 0 1 0.448 1 1v1h-1c-0.552 0-1-0.448-1-1h-1c0 0.929 0.639 1.706 1.5 1.929v1.071h1v-1h1.5v-2c0-1.103-0.897-2-2-2-0.552 0-1-0.448-1-1v-1z"></path>
<path d="M25.218 18.511l-4.218-4.218-9 9-3.5-3.5-7 7v-3.086l7-7 2 2 8.729-8.729c1.082 2.089 3.261 3.522 5.771 3.522 3.584 0 6.5-2.916 6.5-6.5s-2.916-6.5-6.5-6.5-6.5 2.916-6.5 6.5c0 0.691 0.11 1.357 0.311 1.982l-8.312 8.311-2-2-7 7v-9.793h3v-1h-3v-1h4v-1h-4v-1h3v-1h-3v-1h4v-1h-4v-1h3v-1h-3v-1h4v-1h-4v-1h-1v31h24.5c3.584 0 6.5-2.916 6.5-6.5 0-3.511-2.8-6.372-6.282-6.489zM25 1.5c3.032 0 5.5 2.467 5.5 5.5s-2.468 5.5-5.5 5.5-5.5-2.467-5.5-5.5 2.468-5.5 5.5-5.5zM15.5 21.207v9.293h-2v-7.293zM12.5 24.207v6.293h-2v-7.293l1.5 1.5zM9.5 22.207v8.293h-2v-8.293l1-1zM6.5 30.5h-2v-5.293l2-2zM1.5 28.207l2-2v4.293h-2zM16.5 30.5v-10.293l4.5-4.5 2.895 2.895c-3.058 0.527-5.395 3.192-5.395 6.398 0 2.317 1.222 4.349 3.052 5.5zM25 30.5c-3.032 0-5.5-2.468-5.5-5.5s2.468-5.5 5.5-5.5 5.5 2.468 5.5 5.5-2.468 5.5-5.5 5.5z"></path>
<path d="M25 9.5c-0.552 0-1-0.448-1-1h-1c0 0.929 0.639 1.706 1.5 1.929v1.071h1v-1h1.5v-2c0-1.103-0.897-2-2-2-0.552 0-1-0.449-1-1v-1h1c0.552 0 1 0.449 1 1h1c0-0.929-0.639-1.705-1.5-1.929v-1.071h-1v1h-1.5v2c0 1.103 0.897 2 2 2 0.552 0 1 0.449 1 1v1z"></path>
<path d="M9 4h1v1h-1z"></path>
<path d="M11 4h6v1h-6z"></path>
<path d="M9 6h1v1h-1z"></path>
<path d="M11 6h6v1h-6z"></path>
<path d="M9 8h1v1h-1z"></path>
<path d="M11 8h6v1h-6z"></path>
</svg>
