<!-- Generated by IcoMoon.io -->
<svg version="1.1" xmlns="http://www.w3.org/2000/svg" width="32" height="32" viewBox="0 0 32 32">
<title>support</title>
<path d="M13.867 10.133c-0.882 0-1.6 0.718-1.6 1.6h1.067c0-0.294 0.239-0.533 0.533-0.533s0.533 0.239 0.533 0.533h1.067c0-0.882-0.718-1.6-1.6-1.6z"></path>
<path d="M18.133 10.133c-0.882 0-1.6 0.718-1.6 1.6h1.067c0-0.294 0.239-0.533 0.533-0.533s0.533 0.239 0.533 0.533h1.067c0-0.882-0.718-1.6-1.6-1.6z"></path>
<path d="M16 24.533c-1.177 0-2.133 0.957-2.133 2.133s0.957 2.133 2.133 2.133 2.133-0.957 2.133-2.133-0.957-2.133-2.133-2.133zM16 27.733c-0.588 0-1.067-0.478-1.067-1.067s0.478-1.067 1.067-1.067c0.588 0 1.067 0.478 1.067 1.067s-0.478 1.067-1.067 1.067z"></path>
<path d="M28.8 30.933v-6.933c0-4.411-3.589-8-8-8h-0.581c0.19-0.167 0.369-0.345 0.538-0.533h0.577c1.47 0 2.667-1.196 2.667-2.667v-0.94c0.643-0.431 1.067-1.164 1.067-1.994 0-0.833-0.427-1.567-1.073-1.997-0.071-4.35-3.626-7.869-7.994-7.869s-7.923 3.519-7.994 7.869c-0.646 0.43-1.073 1.164-1.073 1.997 0 1.323 1.077 2.4 2.4 2.4h0.363c0.25 1.478 1.005 2.783 2.085 3.733h-0.581c-4.411 0-8 3.589-8 8v6.933h-3.2v1.067h32v-1.067h-3.2zM22.933 12.8c0 0.809-0.606 1.473-1.386 1.578 0.37-0.643 0.629-1.355 0.756-2.111h0.363c0.091 0 0.178-0.017 0.267-0.027v0.561zM24 9.867c0 0.735-0.598 1.333-1.333 1.333h-0.267v-2.667h0.267c0.735 0 1.333 0.598 1.333 1.333zM9.6 11.2h-0.267c-0.735 0-1.333-0.598-1.333-1.333s0.598-1.333 1.333-1.333h0.267v2.667zM9.333 7.467c-0.083 0-0.161 0.016-0.241 0.025 0.262-3.586 3.257-6.425 6.908-6.425s6.645 2.839 6.908 6.425c-0.081-0.009-0.158-0.025-0.241-0.025h-0.363c-0.51-3.022-3.139-5.333-6.303-5.333s-5.794 2.311-6.303 5.333h-0.363zM21.333 8.52c-3.849-0.135-6.399-1.709-6.399-3.187 0-0.294-0.238-0.533-0.533-0.533s-0.533 0.239-0.533 0.533c0 1.333-1.378 2.437-3.169 2.633 0.284-2.675 2.554-4.766 5.302-4.766 2.936 0 5.325 2.386 5.333 5.32zM10.667 11.2v-2.163c1.666-0.145 3.079-0.948 3.785-2.073 1.116 1.478 3.723 2.519 6.882 2.625v1.611c0 1.202-0.404 2.307-1.077 3.2h-4.257v1.067h3.186c-0.306 0.229-0.636 0.427-0.988 0.587-1.399 0.636-2.997 0.636-4.397 0-1.845-0.839-3.134-2.697-3.134-4.853zM14.351 17.377c0.527 0.141 1.078 0.223 1.649 0.223s1.122-0.082 1.649-0.223l-1.649 3.297-1.649-3.297zM15.137 21.333h-0.941l-2.133-4.267h0.941l2.133 4.267zM18.996 17.067h0.941l-2.133 4.267h-0.941l2.133-4.267zM5.867 24v6.933h-1.6v-6.933c0-3.715 2.939-6.747 6.612-6.917l2.125 4.25h-4.47c-1.47 0-2.667 1.196-2.667 2.667zM25.067 30.933h-18.133v-6.933c0-0.882 0.718-1.6 1.6-1.6h14.933c0.882 0 1.6 0.718 1.6 1.6v6.933zM27.733 30.933h-1.6v-6.933c0-1.47-1.196-2.667-2.667-2.667h-4.47l2.125-4.25c3.673 0.17 6.612 3.202 6.612 6.917v6.933z"></path>
<path d="M22.933 26.133h1.067v3.733h-1.067v-3.733z"></path>
<path d="M22.933 24h1.067v1.067h-1.067v-1.067z"></path>
<path d="M27.733 4.8h1.067v1.067h-1.067v-1.067z"></path>
<path d="M27.733 6.933h1.067v1.067h-1.067v-1.067z"></path>
<path d="M27.733 9.067h1.067v1.067h-1.067v-1.067z"></path>
<path d="M3.2 11.2h1.067v1.067h-1.067v-1.067z"></path>
<path d="M3.2 13.333h1.067v1.067h-1.067v-1.067z"></path>
<path d="M3.2 15.467h1.067v1.067h-1.067v-1.067z"></path>
</svg>
