<?xml version="1.0" encoding="UTF-8"?>
<!DOCTYPE svg PUBLIC "-//W3C//DTD SVG 1.1//EN" "http://www.w3.org/Graphics/SVG/1.1/DTD/svg11.dtd">
<!-- Creator: CorelDRAW X7 -->
<svg xmlns="http://www.w3.org/2000/svg" xml:space="preserve" width="200px" height="200px" version="1.1" style="shape-rendering:geometricPrecision; text-rendering:geometricPrecision; image-rendering:optimizeQuality; fill-rule:evenodd; clip-rule:evenodd"
viewBox="0 0 200 200"
 xmlns:xlink="http://www.w3.org/1999/xlink">
 <defs>
  <style type="text/css">
   <![CDATA[
    .fil0 {fill:#00ADEF}
   ]]>
  </style>
 </defs>
 <g id="Layer_x0020_1">
  <metadata id="CorelCorpID_0Corel-Layer"/>
  <g id="_2222340543136">
   <path class="fil0" d="M9 122c0,4 0,7 1,8 1,5 8,5 10,0 1,-2 0,-5 0,-8 0,-12 0,-20 3,-32 0,-2 1,-5 2,-6l0 99c0,7 -1,10 4,13 4,4 9,1 11,-1 0,-1 0,-1 0,-3 0,-3 3,-4 3,-6 0,-4 -3,-13 -1,-23 0,-3 1,-4 1,-6l0 -31 2 0 0 27c2,-1 2,-1 3,-2 0,-1 1,-1 2,-2l11 -10c3,-2 2,-1 2,-12 0,-1 0,-1 -1,-2 -3,-1 -9,-6 -9,-9 -1,-5 8,-3 10,-2l1 -29c4,9 4,25 4,35 0,5 -2,13 5,14 7,0 7,-9 7,-14 0,-9 0,-15 -2,-25l-2 -10c0,-1 -1,-2 -1,-3 -3,-8 -7,-14 -15,-16 -2,0 -3,1 -4,1 -2,0 -3,-1 -4,-1 -2,0 -2,1 -4,1 -2,0 -2,-1 -4,-1 -1,0 -2,1 -4,1 -2,0 -2,-1 -3,-1 -2,0 -2,1 -4,1 -2,0 -2,-1 -4,-1 -7,2 -13,8 -15,15 -3,7 -5,19 -5,29l0 12z"/>
   <path class="fil0" d="M78 159c-6,-5 -13,1 -6,5 1,0 1,0 2,1 1,0 1,0 2,1 5,2 6,3 6,8 0,3 -4,5 -7,5l0 4 -3 0c0,-4 0,-3 -2,-4 -1,0 -2,0 -2,0 -2,-1 -3,-2 -4,-3 1,-1 2,-1 3,-2 3,1 2,2 7,2 2,0 3,-1 3,-3 0,-5 -13,-5 -13,-13 0,-4 4,-6 8,-6l0 -3 3 0 0 3c3,0 5,1 6,2 0,1 -2,2 -3,3zm-35 8c0,6 0,8 1,15 0,1 1,4 0,5 -1,3 -2,1 -2,6 0,1 1,3 3,3 3,0 4,-3 5,-4 5,1 10,5 22,5 10,-1 15,-1 22,-5 0,1 3,5 5,5 2,0 4,-2 4,-4 0,-4 -4,-4 -3,-7 0,-1 1,-2 1,-3 8,-20 1,-32 -16,-42 -3,-1 -7,-4 -9,-6 -2,0 -4,1 -6,-1 -2,3 -6,5 -8,7l-6 5c-7,5 -13,12 -13,21z"/>
   <path class="fil0" d="M59 34c1,1 1,2 2,3 1,1 1,2 2,4 1,-1 2,-3 2,-4 8,-10 15,-16 26,-22 16,-8 39,-8 55,0 5,3 12,7 16,11 8,8 11,11 17,23 10,24 4,53 -15,72 -4,5 -12,10 -19,13 -20,8 -39,8 -58,-3 -1,0 -2,0 -2,-1 -1,0 -1,-1 -2,-1 -1,1 -1,2 -2,4 0,1 -1,2 -2,3 1,0 3,1 4,2 27,14 57,12 81,-7 1,-1 2,-1 3,-2 13,-12 24,-33 24,-51l0 -6c0,-17 -8,-33 -16,-43 -8,-10 -20,-19 -34,-24 -17,-5 -35,-4 -50,2 -1,1 -1,1 -2,2 -5,1 -8,3 -12,6 -5,4 -7,6 -12,10 -2,3 -4,6 -6,9z"/>
   <path class="fil0" d="M28 46c0,5 2,9 4,11 10,11 28,5 28,-10 0,-8 -7,-16 -15,-16 -10,0 -17,7 -17,15z"/>
   <path class="fil0" d="M146 46c2,0 5,3 7,4 -1,1 -1,1 -2,3l-10 13c-1,2 -2,3 -4,5l-8 -2c-2,-1 -7,-2 -9,-2l-7 9c-1,2 -9,13 -10,14l-8 5c-2,1 -7,4 -8,5 -2,-2 -3,-4 -5,-5 0,5 0,6 3,8 2,2 1,2 7,-2l13 -8 13 -17c1,-1 3,-4 4,-5l13 3c1,1 2,1 4,1 1,-1 3,-3 4,-5 4,-6 9,-12 13,-18 2,1 2,2 4,2 1,1 3,2 4,3 0,-7 -1,-13 -1,-19 -2,0 -7,3 -9,3l-6 3c-2,1 -1,0 -2,2z"/>
   <path class="fil0" d="M94 31c-6,0 -8,6 -5,9 0,0 1,1 2,1 7,4 1,5 0,5 -2,0 -3,-1 -4,-2 -1,2 -1,3 -1,4 1,0 2,1 4,1 0,4 -2,3 3,3 0,-2 0,-1 0,-3 3,0 6,-2 6,-6 0,-4 -6,-5 -6,-7 0,-3 5,-1 6,-1 0,-1 1,-2 1,-3 -1,0 -2,-1 -4,-1 1,-1 1,-1 1,-3l-3 0c0,2 0,1 0,3z"/>
   <path class="fil0" d="M109 31c-3,0 -6,2 -6,6 0,4 11,6 5,8 0,1 -1,1 -2,1 -1,0 -3,-1 -4,-2 0,2 -1,2 -1,4 1,0 2,1 4,1 0,4 -2,3 3,3 0,-2 0,-1 0,-3 3,0 6,-2 6,-5 0,-6 -6,-6 -6,-8 0,-3 5,-1 6,-1 1,-1 1,-2 2,-3 -2,0 -2,-1 -4,-1l0 -3 -3 0c0,2 0,1 0,3z"/>
   <path class="fil0" d="M124 31c-5,0 -8,6 -3,10 1,0 7,2 3,4 -3,2 -5,0 -7,-1 0,2 0,2 -1,4 2,0 2,1 4,1 0,4 -1,3 1,3 0,0 1,0 2,0 0,-2 1,-1 1,-3 3,0 6,-2 6,-6 0,-4 -7,-5 -7,-7 0,-3 5,-1 7,-1 0,-1 1,-1 1,-3 -1,0 -2,-1 -4,-1 0,-2 1,-2 1,-3l-3 0c0,2 -1,2 -1,3z"/>
   <path class="fil0" d="M54 116c0,2 3,4 6,6 1,1 5,4 6,4l1 -8c0,-1 0,-1 -1,-2 0,0 -12,-4 -12,0z"/>
   <path class="fil0" d="M81 126c1,0 1,0 2,-1 10,-8 4,-9 -2,-12 0,5 0,8 0,13z"/>
   <path class="fil0" d="M49 196c5,3 6,2 10,1l-9 -3c0,2 0,0 -1,2z"/>
  </g>
 </g>
</svg>
