<?xml version="1.0" encoding="UTF-8"?>
<!DOCTYPE svg PUBLIC "-//W3C//DTD SVG 1.1//EN" "http://www.w3.org/Graphics/SVG/1.1/DTD/svg11.dtd">
<!-- Creator: CorelDRAW X7 -->
<svg xmlns="http://www.w3.org/2000/svg" xml:space="preserve" width="200px" height="200px" version="1.1" style="shape-rendering:geometricPrecision; text-rendering:geometricPrecision; image-rendering:optimizeQuality; fill-rule:evenodd; clip-rule:evenodd"
viewBox="0 0 200 200"
 xmlns:xlink="http://www.w3.org/1999/xlink">
 <defs>
  <style type="text/css">
   <![CDATA[
    .fil0 {fill:#00ADEF}
   ]]>
  </style>
 </defs>
 <g id="Layer_x0020_1">
  <metadata id="CorelCorpID_0Corel-Layer"/>
  <g id="_2222332778928">
   <path class="fil0" d="M140 149c2,9 -1,14 -10,17 -13,4 -34,3 -49,3 -1,0 -2,-2 -2,-2 0,-4 2,-3 6,-3 11,0 52,3 52,-10 0,-9 -5,-9 -11,-9 -19,0 -21,3 -42,-3 -19,-6 -39,-5 -59,0l0 38c1,2 1,1 6,2 24,3 29,4 52,11 26,8 43,-8 61,-21 1,-1 2,-1 3,-2l38 -30c1,-1 10,-8 10,-10 0,-16 -26,1 -32,4 -4,3 -7,5 -11,8 -2,1 -10,7 -12,7z"/>
   <path class="fil0" d="M72 39c0,-31 38,-41 53,-14 4,7 4,17 0,24 -2,4 -3,5 -6,8 -10,11 -28,10 -39,0 -3,-4 -8,-11 -8,-18zm-5 -2c0,14 10,26 21,30 12,6 10,-5 10,21 -3,-2 -7,-9 -21,-9 -3,0 -18,0 -18,4 0,6 12,26 26,26 5,0 7,1 13,-2l0 20c-8,0 -26,3 -29,7 10,1 24,7 35,7 3,0 6,1 10,1 4,-1 14,-1 19,-1 2,1 5,3 6,5 1,-1 3,-3 4,-4 -1,-2 -6,-5 -8,-6 -8,-6 -21,-9 -33,-9l0 -20c11,5 22,2 30,-7 3,-3 9,-13 9,-17 0,-2 -4,-3 -6,-3 -8,-2 -17,-2 -24,1 -2,1 -3,2 -5,3 -2,1 -3,3 -4,4l0 -15c0,-5 1,-3 6,-4 23,-7 32,-32 19,-50 -12,-18 -39,-19 -52,-3 -1,1 -1,1 -2,3 -3,5 -6,11 -6,18z"/>
   <path class="fil0" d="M5 134l0 55c0,5 6,4 11,4 6,0 4,-6 4,-11 0,-1 1,-2 1,-2 0,-2 -1,0 -1,-2 0,-2 1,-2 1,-4l-1 -5c0,-1 1,-1 1,-2 0,-1 -1,0 -1,-2 0,-2 1,-2 1,-3l-1 -5c0,-1 1,-2 1,-3l-1 -3c0,-1 1,-1 1,-2l0 -7c0,-2 -1,-2 -1,-3 0,-3 2,-10 -3,-10 -7,0 -12,-1 -12,5z"/>
   <path class="fil0" d="M98 15l0 4c-6,0 -13,8 -7,16 3,6 9,4 12,5 5,2 4,10 -2,11 -3,1 -7,0 -11,1 -1,5 1,4 8,4 0,2 0,6 2,6 4,-1 3,-2 3,-6 3,-2 8,-4 8,-10 0,-12 -12,-11 -14,-12 -5,-1 -4,-10 1,-11 2,0 8,0 11,0 1,-1 1,-1 1,-3 0,-2 -5,-2 -7,-2 0,-5 0,-5 -3,-5 -1,0 -2,1 -2,2z"/>
  </g>
 </g>
</svg>
