<?xml version="1.0" encoding="UTF-8"?>
<!DOCTYPE svg PUBLIC "-//W3C//DTD SVG 1.1//EN" "http://www.w3.org/Graphics/SVG/1.1/DTD/svg11.dtd">
<!-- Creator: CorelDRAW X7 -->
<svg xmlns="http://www.w3.org/2000/svg" xml:space="preserve" width="200px" height="200px" version="1.1" style="shape-rendering:geometricPrecision; text-rendering:geometricPrecision; image-rendering:optimizeQuality; fill-rule:evenodd; clip-rule:evenodd"
viewBox="0 0 200 200"
 xmlns:xlink="http://www.w3.org/1999/xlink">
 <defs>
  <style type="text/css">
   <![CDATA[
    .fil0 {fill:#00ADEF}
   ]]>
  </style>
 </defs>
 <g id="Layer_x0020_1">
  <metadata id="CorelCorpID_0Corel-Layer"/>
  <g id="_2222337344672">
   <path class="fil0" d="M39 118c2,0 3,0 6,2 2,1 3,2 5,3 3,2 6,4 10,6 8,4 17,4 27,4 5,0 10,-1 15,-1 11,-1 22,0 31,-1 14,-1 17,-17 2,-26 -13,-7 -35,-3 -38,-10 -1,-4 1,-10 3,-13 7,-10 8,-6 13,-3 2,1 4,2 5,3 6,2 9,2 13,-1 11,-8 22,-7 22,-10 0,-5 -14,-13 -18,-15 -10,-7 -24,-12 -38,-8 -17,4 -25,12 -48,16 -2,0 -4,0 -7,1 -2,0 -2,0 -3,1l0 52z"/>
   <path class="fil0" d="M14 58c-3,1 -6,3 -7,5 -2,5 -1,45 -1,55 0,3 0,3 2,5 1,3 3,4 7,5 4,0 10,0 13,-1 4,0 5,-2 7,-5 1,-2 0,-9 0,-12l0 -37c0,-7 1,-15 -9,-15 -2,0 -10,-1 -12,0z"/>
   <path class="fil0" d="M131 99c1,-1 2,-3 6,-7 9,-6 18,-9 29,-5 19,6 28,31 14,47 -3,5 -7,8 -14,11 -6,2 -16,1 -21,-1 -3,-2 -6,-3 -8,-5 -4,-3 -3,-3 -6,-7 -1,1 -6,4 -6,4 0,2 6,7 7,8 24,21 62,5 62,-28 0,-30 -35,-50 -62,-29 -1,1 -6,6 -7,8 1,1 4,3 6,4z"/>
   <path class="fil0" d="M169 105c1,-4 -5,-6 -6,-8 -1,-1 0,-3 -2,-4 -2,-1 -5,-1 -6,0 -2,2 -1,4 -2,5 -1,1 -1,1 -2,2 -3,2 -5,8 -4,12 3,7 15,8 16,12 0,4 -5,6 -9,4 -1,0 -3,-2 -4,-2 -2,0 -4,2 -4,4 -1,3 4,5 7,6 2,2 0,4 2,5 1,1 4,1 6,0 2,-1 1,-3 2,-5 0,0 8,-2 8,-12 0,-12 -19,-12 -16,-17 1,-2 3,-2 5,-1 1,0 7,5 9,-1z"/>
  </g>
 </g>
</svg>
