<?xml version="1.0" encoding="UTF-8"?>
<!DOCTYPE svg PUBLIC "-//W3C//DTD SVG 1.1//EN" "http://www.w3.org/Graphics/SVG/1.1/DTD/svg11.dtd">
<!-- Creator: CorelDRAW X7 -->
<svg xmlns="http://www.w3.org/2000/svg" xml:space="preserve" width="200px" height="200px" version="1.1" style="shape-rendering:geometricPrecision; text-rendering:geometricPrecision; image-rendering:optimizeQuality; fill-rule:evenodd; clip-rule:evenodd"
viewBox="0 0 200 200"
 xmlns:xlink="http://www.w3.org/1999/xlink">
 <defs>
  <style type="text/css">
   <![CDATA[
    .fil0 {fill:#00ADEF}
   ]]>
  </style>
 </defs>
 <g id="Layer_x0020_1">
  <metadata id="CorelCorpID_0Corel-Layer"/>
  <g id="_2222333026208">
   <path class="fil0" d="M28 40l24 0c0,4 0,13 0,18 0,7 8,6 12,6l72 0c2,0 6,0 8,-1 2,-1 4,-2 4,-5 0,-6 -1,-13 0,-18l24 0 0 144 -144 0 0 -144zm71 -24c2,0 4,0 6,1 0,0 0,0 1,1 1,0 1,0 2,1 8,7 4,20 -6,21 -5,1 -9,-2 -12,-5l0 -1c0,0 0,0 0,0 -1,-1 -2,-3 -2,-4 0,-4 1,-7 3,-10 1,-2 4,-3 8,-4zm-23 12c-2,0 -44,0 -49,0 -7,0 -11,0 -11,8 0,4 0,7 0,10 0,26 0,52 0,78l0 58c0,5 -1,10 3,12 0,1 0,1 1,1 3,1 36,1 41,1 13,0 26,0 39,0 20,0 39,-1 59,0 6,0 13,0 19,0 3,0 5,-2 6,-5 0,-1 0,-25 0,-28 0,-39 0,-78 0,-117 0,-3 0,-12 -1,-14 -1,-5 -6,-4 -11,-4 -5,0 -46,0 -48,0 0,-4 0,-6 -2,-10 0,0 -1,-1 -1,-1 0,0 0,-1 0,-1 -1,-2 -3,-3 -4,-5 -2,-2 -4,-3 -7,-5 -3,-1 -6,-2 -10,-2 -7,0 -12,3 -17,7 -4,4 -6,9 -7,17z"/>
   <path class="fil0" d="M88 165c1,-2 2,-2 3,-4 0,0 1,0 1,-1l5 -5c0,0 0,0 0,0l2 -2c0,-1 0,-1 1,-1l24 -27c1,0 1,-1 1,-1l6 -6c1,-1 1,-2 2,-2l10 -11c0,-1 1,-2 2,-2 0,-1 1,-2 2,-2 0,-1 1,-2 1,-2 1,-1 1,-1 1,-2l1 -1 -11 -10c0,0 -2,2 -3,2 -1,1 -2,2 -3,3l-42 37c-1,1 -2,2 -3,3 -1,-1 -3,-2 -4,-3 -1,-1 -2,-2 -3,-3l-17 -13c-1,-1 -3,-2 -3,-3l-11 11 4 6c1,1 2,2 3,3l26 30c1,1 2,2 3,3 0,1 1,2 2,3z"/>
  </g>
 </g>
</svg>
